<?xml version="1.0" encoding="UTF-8"?>
<svg id="Layer_2" data-name="Layer 2" xmlns="http://www.w3.org/2000/svg" viewBox="0 0 23.5 49.5">
  <defs>
    <style>
      .cls-1 {
        stroke-width: 0px;
      }
    </style>
  </defs>
  <g id="Axe">
    <path class="cls-1" d="m22.12,1.98c-.86-.5-1.89-.5-2.75,0l-6.88,3.97v-3.2c0-1.52-1.23-2.75-2.75-2.75h-4c-1.52,0-2.75,1.23-2.75,2.75v8.68l-1.63.94c-.86.5-1.37,1.39-1.37,2.38s.51,1.88,1.37,2.38l1.62.94v28.68c0,1.52,1.23,2.75,2.75,2.75h4c1.52,0,2.75-1.23,2.75-2.75v-23.2l6.87,3.97c.43.25.9.37,1.38.37s.94-.12,1.37-.37c.86-.5,1.38-1.39,1.38-2.38V4.36c0-.99-.51-1.88-1.38-2.38Zm-17.62.77c0-.69.56-1.25,1.25-1.25h4c.69,0,1.25.56,1.25,1.25v4.06l-6.5,3.75V2.75Zm6.5,44c0,.69-.56,1.25-1.25,1.25h-4c-.69,0-1.25-.56-1.25-1.25v-27.82l6.5,3.75v24.06Zm11-21.61c0,.45-.23.86-.62,1.08-.39.23-.86.23-1.25,0l-7.62-4.4h0s-9.5-5.49-9.5-5.49h0s-.87-.5-.87-.5c-.39-.23-.62-.63-.62-1.08s.23-.85.62-1.08l.88-.51h0s9.5-5.48,9.5-5.48h0s7.63-4.4,7.63-4.4c.2-.11.41-.17.62-.17s.43.06.62.17c.39.23.62.63.62,1.08v20.78Z"/>
  </g>
</svg>