<svg width="235" height="56" viewBox="0 0 235 56" fill="none" xmlns="http://www.w3.org/2000/svg">
<path d="M62.7327 37.8578H66.3627L61.6158 32.9248C54.8213 25.8511 45.4207 21.8489 35.5548 21.8489H30.8079C21.035 21.8489 11.6344 25.8511 4.74684 32.9248L0 37.8578H3.62994C13.4028 37.8578 22.8034 33.8556 29.691 26.7818L33.2279 23.1519C31.1802 35.624 13.4028 55.3559 13.4028 55.3559H53.2391C53.2391 55.3559 35.6478 35.9032 33.414 23.4311L36.6717 26.8749C43.4662 33.8556 52.8668 37.8578 62.7327 37.8578Z" fill="#E7E8DB"/>
<path d="M30.2494 14.589L33.1348 11.6106L36.0201 14.589C41.6046 20.4527 49.4229 23.7104 57.5205 23.7104H60.4989L56.5897 19.615C51.0052 13.7513 43.1869 10.4937 35.0894 10.4937H31.1802C23.0826 10.4937 15.3574 13.7513 9.6798 19.615L5.77064 23.8034H8.74905C16.8466 23.8034 24.6649 20.4527 30.2494 14.589Z" fill="#E7E8DB"/>
<path d="M30.808 4.3507L33.1348 1.93075L35.4617 4.3507C40.0224 9.09754 46.3515 11.7967 52.9599 11.7967H55.3798L52.2153 8.44602C47.6546 3.69918 41.3255 0.999994 34.7171 0.999994H31.5526C24.9442 0.999994 18.6151 3.69918 14.0544 8.44602L10.8898 11.7967H13.3098C19.9181 11.7967 26.2473 9.09754 30.808 4.3507Z" fill="#E7E8DB"/>
<path d="M89.5675 3.00799C92.2795 3.00799 94.6555 3.52399 96.6955 4.55599C98.7355 5.58799 100.319 7.07599 101.447 9.01999C102.575 10.94 103.139 13.28 103.139 16.04C103.139 18.728 102.563 21.08 101.411 23.096C100.259 25.112 98.6515 26.684 96.5875 27.812C94.5475 28.94 92.1955 29.504 89.5315 29.504C86.8195 29.504 84.4435 28.988 82.4035 27.956C80.3635 26.924 78.7795 25.436 77.6515 23.492C76.5235 21.548 75.9594 19.208 75.9594 16.472C75.9594 13.784 76.5355 11.432 77.6875 9.41599C78.8635 7.39999 80.4715 5.82799 82.5115 4.69999C84.5515 3.57199 86.9035 3.00799 89.5675 3.00799ZM89.4235 3.65599C88.2235 3.65599 87.1795 4.19599 86.2915 5.27599C85.4035 6.35599 84.7194 7.84399 84.2394 9.73999C83.7594 11.636 83.5195 13.832 83.5195 16.328C83.5195 18.872 83.7954 21.092 84.3475 22.988C84.8995 24.86 85.6435 26.312 86.5795 27.344C87.5155 28.352 88.5475 28.856 89.6755 28.856C90.8755 28.856 91.9194 28.316 92.8074 27.236C93.6954 26.156 94.3795 24.668 94.8595 22.772C95.3395 20.852 95.5795 18.656 95.5795 16.184C95.5795 13.616 95.3034 11.396 94.7514 9.52399C94.1994 7.65199 93.4555 6.21199 92.5195 5.20399C91.5835 4.17199 90.5515 3.65599 89.4235 3.65599Z" fill="#E7E8DB"/>
<path d="M109.811 29.252C108.683 29.252 107.759 29.036 107.039 28.604C106.319 28.172 105.791 27.608 105.455 26.912C105.143 26.216 104.987 25.484 104.987 24.716C104.987 23.708 105.215 22.892 105.671 22.268C106.127 21.62 106.715 21.104 107.435 20.72C108.179 20.312 108.959 19.976 109.775 19.712C110.591 19.448 111.359 19.196 112.079 18.956C112.823 18.692 113.423 18.392 113.879 18.056C114.335 17.696 114.563 17.24 114.563 16.688V13.484C114.563 13.1 114.491 12.68 114.347 12.224C114.227 11.768 113.987 11.372 113.627 11.036C113.267 10.7 112.727 10.532 112.007 10.532C111.623 10.532 111.251 10.592 110.891 10.712C110.555 10.808 110.255 10.952 109.991 11.144C110.831 11.456 111.443 11.9 111.827 12.476C112.211 13.028 112.403 13.64 112.403 14.312C112.403 15.272 112.067 16.028 111.395 16.58C110.723 17.132 109.931 17.408 109.019 17.408C108.059 17.408 107.315 17.108 106.787 16.508C106.259 15.908 105.995 15.164 105.995 14.276C105.995 13.532 106.175 12.908 106.535 12.404C106.919 11.876 107.483 11.396 108.227 10.964C108.947 10.556 109.811 10.268 110.819 10.1C111.827 9.90799 112.883 9.81199 113.987 9.81199C115.163 9.81199 116.255 9.93199 117.263 10.172C118.271 10.388 119.135 10.868 119.855 11.612C120.359 12.14 120.683 12.8 120.827 13.592C120.971 14.384 121.043 15.404 121.043 16.652V26.3C121.043 26.9 121.079 27.308 121.151 27.524C121.247 27.74 121.403 27.848 121.619 27.848C121.811 27.848 121.991 27.788 122.159 27.668C122.351 27.548 122.531 27.428 122.699 27.308L123.059 27.92C122.531 28.376 121.871 28.712 121.079 28.928C120.311 29.144 119.495 29.252 118.631 29.252C117.599 29.252 116.795 29.132 116.219 28.892C115.667 28.628 115.271 28.292 115.031 27.884C114.815 27.452 114.695 26.996 114.671 26.516C114.167 27.308 113.531 27.968 112.763 28.496C112.019 29 111.035 29.252 109.811 29.252ZM113.231 26.372C113.495 26.372 113.723 26.336 113.915 26.264C114.131 26.168 114.347 26 114.563 25.76V18.164C114.395 18.476 114.167 18.788 113.879 19.1C113.615 19.388 113.339 19.688 113.051 20C112.763 20.312 112.487 20.648 112.223 21.008C111.983 21.368 111.779 21.788 111.611 22.268C111.467 22.724 111.395 23.264 111.395 23.888C111.395 24.8 111.563 25.448 111.899 25.832C112.259 26.192 112.703 26.372 113.231 26.372Z" fill="#E7E8DB"/>
<path d="M132.464 0.847992V25.652C132.464 26.66 132.608 27.344 132.896 27.704C133.208 28.064 133.736 28.244 134.48 28.244V29C134 28.976 133.28 28.952 132.32 28.928C131.36 28.88 130.376 28.856 129.368 28.856C128.36 28.856 127.34 28.88 126.308 28.928C125.276 28.952 124.496 28.976 123.968 29V28.244C124.712 28.244 125.228 28.064 125.516 27.704C125.828 27.344 125.984 26.66 125.984 25.652V5.16799C125.984 4.08799 125.84 3.29599 125.552 2.79199C125.264 2.26399 124.736 1.99999 123.968 1.99999V1.24399C124.736 1.31599 125.48 1.35199 126.2 1.35199C127.4 1.35199 128.516 1.31599 129.548 1.24399C130.604 1.14799 131.576 1.01599 132.464 0.847992ZM144.416 10.316V11.036C143.552 11.276 142.676 11.696 141.788 12.296C140.9 12.896 140 13.652 139.088 14.564L137.828 15.824L138.08 15.356L143.876 26.372C144.068 26.732 144.272 27.092 144.488 27.452C144.704 27.788 144.98 28.052 145.316 28.244V29C144.908 28.976 144.284 28.952 143.444 28.928C142.628 28.88 141.8 28.856 140.96 28.856C140 28.856 139.028 28.88 138.044 28.928C137.084 28.952 136.364 28.976 135.884 29V28.244C136.364 28.244 136.676 28.136 136.82 27.92C136.988 27.704 136.976 27.404 136.784 27.02L133.616 20.324C133.448 19.988 133.256 19.772 133.04 19.676C132.824 19.58 132.572 19.532 132.284 19.532V18.848C132.62 18.848 132.932 18.824 133.22 18.776C133.508 18.704 133.772 18.548 134.012 18.308L136.784 15.716C137.624 14.948 138.044 14.228 138.044 13.556C138.068 12.86 137.804 12.284 137.252 11.828C136.724 11.372 136.028 11.108 135.164 11.036V10.316C135.86 10.34 136.604 10.364 137.396 10.388C138.212 10.412 138.908 10.424 139.484 10.424C139.988 10.424 140.564 10.424 141.212 10.424C141.86 10.4 142.472 10.388 143.048 10.388C143.648 10.364 144.104 10.34 144.416 10.316Z" fill="#E7E8DB"/>
<path d="M153.663 0.847992V12.512C154.239 11.552 155.007 10.868 155.967 10.46C156.951 10.028 158.091 9.81199 159.387 9.81199C160.491 9.81199 161.355 9.95599 161.979 10.244C162.627 10.508 163.119 10.844 163.455 11.252C163.815 11.684 164.079 12.26 164.247 12.98C164.415 13.7 164.499 14.672 164.499 15.896V25.652C164.499 26.66 164.643 27.344 164.931 27.704C165.243 28.064 165.771 28.244 166.515 28.244V29C166.035 28.976 165.303 28.952 164.319 28.928C163.359 28.88 162.411 28.856 161.475 28.856C160.467 28.856 159.483 28.88 158.523 28.928C157.563 28.952 156.843 28.976 156.363 29V28.244C156.987 28.244 157.419 28.064 157.659 27.704C157.899 27.344 158.019 26.66 158.019 25.652V13.952C158.019 13.448 157.959 13.028 157.839 12.692C157.719 12.356 157.527 12.104 157.263 11.936C157.023 11.768 156.687 11.684 156.255 11.684C155.823 11.684 155.403 11.792 154.995 12.008C154.611 12.224 154.287 12.536 154.023 12.944C153.783 13.328 153.663 13.772 153.663 14.276V25.652C153.663 26.66 153.783 27.344 154.023 27.704C154.287 28.064 154.719 28.244 155.319 28.244V29C154.863 28.976 154.191 28.952 153.303 28.928C152.415 28.88 151.503 28.856 150.567 28.856C149.559 28.856 148.539 28.88 147.507 28.928C146.475 28.952 145.695 28.976 145.167 29V28.244C145.911 28.244 146.427 28.064 146.715 27.704C147.027 27.344 147.183 26.66 147.183 25.652V5.16799C147.183 4.08799 147.039 3.29599 146.751 2.79199C146.463 2.26399 145.935 1.99999 145.167 1.99999V1.24399C145.935 1.31599 146.679 1.35199 147.399 1.35199C148.599 1.35199 149.715 1.31599 150.747 1.24399C151.803 1.14799 152.775 1.01599 153.663 0.847992Z" fill="#E7E8DB"/>
<path d="M177.281 9.81199C179.393 9.81199 181.049 10.436 182.249 11.684C183.473 12.908 184.085 14.972 184.085 17.876H172.817L172.745 17.192H178.829C178.853 16.016 178.805 14.936 178.685 13.952C178.565 12.944 178.373 12.14 178.109 11.54C177.845 10.94 177.485 10.64 177.029 10.64C176.381 10.64 175.853 11.156 175.445 12.188C175.037 13.196 174.773 14.936 174.653 17.408L174.797 17.696C174.773 17.936 174.761 18.176 174.761 18.416C174.761 18.656 174.761 18.908 174.761 19.172C174.761 20.852 174.965 22.16 175.373 23.096C175.805 24.032 176.333 24.68 176.957 25.04C177.605 25.4 178.253 25.58 178.901 25.58C179.237 25.58 179.633 25.532 180.089 25.436C180.569 25.34 181.085 25.124 181.637 24.788C182.189 24.428 182.729 23.888 183.257 23.168L183.869 23.384C183.581 24.344 183.113 25.304 182.465 26.264C181.841 27.2 181.025 27.98 180.017 28.604C179.009 29.204 177.785 29.504 176.345 29.504C174.809 29.504 173.405 29.192 172.133 28.568C170.885 27.944 169.889 26.912 169.145 25.472C168.401 24.032 168.029 22.1 168.029 19.676C168.029 17.372 168.437 15.5 169.253 14.06C170.069 12.596 171.173 11.528 172.565 10.856C173.981 10.16 175.553 9.81199 177.281 9.81199Z" fill="#E7E8DB"/>
<path d="M190.635 29.252C189.507 29.252 188.583 29.036 187.863 28.604C187.143 28.172 186.615 27.608 186.279 26.912C185.967 26.216 185.811 25.484 185.811 24.716C185.811 23.708 186.039 22.892 186.495 22.268C186.951 21.62 187.539 21.104 188.259 20.72C189.003 20.312 189.783 19.976 190.599 19.712C191.415 19.448 192.183 19.196 192.903 18.956C193.647 18.692 194.247 18.392 194.703 18.056C195.159 17.696 195.387 17.24 195.387 16.688V13.484C195.387 13.1 195.315 12.68 195.171 12.224C195.051 11.768 194.811 11.372 194.451 11.036C194.091 10.7 193.551 10.532 192.831 10.532C192.447 10.532 192.075 10.592 191.715 10.712C191.379 10.808 191.079 10.952 190.815 11.144C191.655 11.456 192.267 11.9 192.651 12.476C193.035 13.028 193.227 13.64 193.227 14.312C193.227 15.272 192.891 16.028 192.219 16.58C191.547 17.132 190.755 17.408 189.843 17.408C188.883 17.408 188.139 17.108 187.611 16.508C187.083 15.908 186.819 15.164 186.819 14.276C186.819 13.532 186.999 12.908 187.359 12.404C187.743 11.876 188.307 11.396 189.051 10.964C189.771 10.556 190.635 10.268 191.643 10.1C192.651 9.90799 193.707 9.81199 194.811 9.81199C195.987 9.81199 197.079 9.93199 198.087 10.172C199.095 10.388 199.959 10.868 200.679 11.612C201.183 12.14 201.507 12.8 201.651 13.592C201.795 14.384 201.867 15.404 201.867 16.652V26.3C201.867 26.9 201.903 27.308 201.975 27.524C202.071 27.74 202.227 27.848 202.443 27.848C202.635 27.848 202.815 27.788 202.983 27.668C203.175 27.548 203.355 27.428 203.523 27.308L203.883 27.92C203.355 28.376 202.695 28.712 201.903 28.928C201.135 29.144 200.319 29.252 199.455 29.252C198.423 29.252 197.619 29.132 197.043 28.892C196.491 28.628 196.095 28.292 195.855 27.884C195.639 27.452 195.519 26.996 195.495 26.516C194.991 27.308 194.355 27.968 193.587 28.496C192.843 29 191.859 29.252 190.635 29.252ZM194.055 26.372C194.319 26.372 194.547 26.336 194.739 26.264C194.955 26.168 195.171 26 195.387 25.76V18.164C195.219 18.476 194.991 18.788 194.703 19.1C194.439 19.388 194.163 19.688 193.875 20C193.587 20.312 193.311 20.648 193.047 21.008C192.807 21.368 192.603 21.788 192.435 22.268C192.291 22.724 192.219 23.264 192.219 23.888C192.219 24.8 192.387 25.448 192.723 25.832C193.083 26.192 193.527 26.372 194.055 26.372Z" fill="#E7E8DB"/>
<path d="M218.04 9.81199C218.904 9.81199 219.576 10.004 220.056 10.388C220.536 10.748 220.872 11.216 221.064 11.792C221.256 12.344 221.352 12.896 221.352 13.448C221.352 14.528 221.04 15.392 220.416 16.04C219.816 16.664 219.024 16.976 218.04 16.976C216.984 16.976 216.18 16.736 215.628 16.256C215.1 15.776 214.836 15.152 214.836 14.384C214.836 13.568 215.004 12.896 215.34 12.368C215.7 11.84 216.144 11.396 216.672 11.036C216.24 11.036 215.856 11.12 215.52 11.288C215.232 11.408 214.956 11.576 214.692 11.792C214.428 12.008 214.2 12.26 214.008 12.548C213.816 12.812 213.66 13.112 213.54 13.448C213.444 13.784 213.396 14.132 213.396 14.492V25.292C213.396 26.444 213.636 27.224 214.116 27.632C214.596 28.04 215.388 28.244 216.492 28.244V29C215.94 28.976 215.112 28.952 214.008 28.928C212.928 28.88 211.812 28.856 210.66 28.856C209.58 28.856 208.488 28.88 207.384 28.928C206.28 28.952 205.452 28.976 204.9 29V28.244C205.644 28.244 206.16 28.064 206.448 27.704C206.76 27.344 206.916 26.66 206.916 25.652V14.24C206.916 13.16 206.772 12.368 206.484 11.864C206.196 11.336 205.668 11.072 204.9 11.072V10.316C205.668 10.388 206.412 10.424 207.132 10.424C208.332 10.424 209.448 10.388 210.48 10.316C211.536 10.22 212.508 10.088 213.396 9.91999V12.512C213.708 11.888 214.092 11.384 214.548 11C215.004 10.592 215.52 10.292 216.096 10.1C216.696 9.90799 217.344 9.81199 218.04 9.81199Z" fill="#E7E8DB"/>
<path d="M230.548 4.48399V10.316H234.076V11.036H230.548V25.976C230.548 26.432 230.632 26.768 230.8 26.984C230.968 27.176 231.244 27.272 231.628 27.272C231.892 27.272 232.204 27.2 232.564 27.056C232.924 26.888 233.26 26.612 233.572 26.228L234.112 26.66C233.608 27.524 232.936 28.22 232.096 28.748C231.28 29.252 230.248 29.504 229 29.504C228.208 29.504 227.488 29.396 226.84 29.18C226.216 28.988 225.7 28.688 225.292 28.28C224.764 27.752 224.428 27.104 224.284 26.336C224.14 25.544 224.068 24.524 224.068 23.276V11.036H221.332V10.316H224.068V6.06799C225.34 6.06799 226.492 5.94799 227.524 5.70799C228.58 5.44399 229.588 5.03599 230.548 4.48399Z" fill="#E7E8DB"/>
<path d="M90.6246 38.008C90.5606 38.616 90.5126 39.208 90.4806 39.784C90.4646 40.344 90.4566 40.776 90.4566 41.08C90.4566 41.464 90.4646 41.824 90.4806 42.16C90.4966 42.496 90.5126 42.792 90.5286 43.048H89.9766C89.8646 41.928 89.7126 41.048 89.5206 40.408C89.3286 39.752 88.9926 39.28 88.5126 38.992C88.0326 38.704 87.2886 38.56 86.2806 38.56H84.9846V52.216C84.9846 52.856 85.0406 53.336 85.1526 53.656C85.2806 53.976 85.5206 54.192 85.8726 54.304C86.2246 54.416 86.7366 54.488 87.4086 54.52V55C86.9926 54.968 86.4646 54.952 85.8246 54.952C85.1846 54.936 84.5366 54.928 83.8806 54.928C83.1606 54.928 82.4806 54.936 81.8406 54.952C81.2166 54.952 80.7126 54.968 80.3286 55V54.52C81.0006 54.488 81.5126 54.416 81.8646 54.304C82.2166 54.192 82.4486 53.976 82.5606 53.656C82.6886 53.336 82.7526 52.856 82.7526 52.216V38.56H81.4566C80.4646 38.56 79.7206 38.704 79.2246 38.992C78.7446 39.28 78.4086 39.752 78.2166 40.408C78.0246 41.048 77.8726 41.928 77.7606 43.048H77.2086C77.2406 42.792 77.2566 42.496 77.2566 42.16C77.2726 41.824 77.2806 41.464 77.2806 41.08C77.2806 40.776 77.2646 40.344 77.2326 39.784C77.2166 39.208 77.1766 38.616 77.1126 38.008C77.7846 38.024 78.5126 38.04 79.2966 38.056C80.0966 38.072 80.8966 38.08 81.6966 38.08C82.4966 38.08 83.2246 38.08 83.8806 38.08C84.5366 38.08 85.2566 38.08 86.0406 38.08C86.8406 38.08 87.6406 38.072 88.4406 38.056C89.2406 38.04 89.9686 38.024 90.6246 38.008Z" fill="#E7E8DB"/>
<path d="M100.683 42.304C101.115 42.304 101.491 42.392 101.811 42.568C102.147 42.744 102.403 42.976 102.579 43.264C102.771 43.536 102.867 43.848 102.867 44.2C102.867 44.6 102.739 44.952 102.483 45.256C102.243 45.56 101.915 45.712 101.499 45.712C101.163 45.712 100.867 45.608 100.611 45.4C100.355 45.176 100.227 44.864 100.227 44.464C100.227 44.16 100.307 43.904 100.467 43.696C100.643 43.472 100.835 43.296 101.043 43.168C100.931 43.008 100.763 42.928 100.539 42.928C100.043 42.928 99.5868 43.08 99.1708 43.384C98.7548 43.672 98.4028 44.048 98.1148 44.512C97.8268 44.976 97.6028 45.472 97.4428 46C97.2828 46.512 97.2028 46.992 97.2028 47.44V52.528C97.2028 53.312 97.4268 53.84 97.8748 54.112C98.3388 54.368 98.9628 54.496 99.7468 54.496V55C99.3788 54.984 98.8588 54.968 98.1868 54.952C97.5148 54.92 96.8028 54.904 96.0508 54.904C95.5068 54.904 94.9628 54.92 94.4188 54.952C93.8908 54.968 93.4908 54.984 93.2188 55V54.496C93.8748 54.496 94.3388 54.376 94.6108 54.136C94.8988 53.896 95.0428 53.44 95.0428 52.768V45.256C95.0428 44.536 94.9148 44.008 94.6588 43.672C94.4028 43.32 93.9228 43.144 93.2188 43.144V42.64C93.7308 42.688 94.2268 42.712 94.7068 42.712C95.1708 42.712 95.6108 42.688 96.0268 42.64C96.4588 42.576 96.8508 42.488 97.2028 42.376V45.376C97.3788 44.912 97.6268 44.448 97.9468 43.984C98.2828 43.504 98.6828 43.104 99.1468 42.784C99.6108 42.464 100.123 42.304 100.683 42.304Z" fill="#E7E8DB"/>
<path d="M110.47 42.304C111.878 42.304 112.974 42.736 113.758 43.6C114.558 44.448 114.958 45.776 114.958 47.584H106.486L106.462 47.128H112.654C112.686 46.344 112.622 45.624 112.462 44.968C112.302 44.296 112.046 43.76 111.694 43.36C111.358 42.96 110.918 42.76 110.374 42.76C109.638 42.76 108.982 43.128 108.406 43.864C107.846 44.6 107.51 45.768 107.398 47.368L107.47 47.464C107.438 47.704 107.414 47.968 107.398 48.256C107.382 48.544 107.374 48.832 107.374 49.12C107.374 50.208 107.55 51.144 107.902 51.928C108.254 52.712 108.71 53.312 109.27 53.728C109.846 54.128 110.438 54.328 111.046 54.328C111.526 54.328 111.982 54.256 112.414 54.112C112.846 53.952 113.246 53.696 113.614 53.344C113.982 52.992 114.302 52.52 114.574 51.928L115.054 52.12C114.878 52.648 114.59 53.16 114.19 53.656C113.79 54.152 113.286 54.56 112.678 54.88C112.07 55.184 111.366 55.336 110.566 55.336C109.414 55.336 108.422 55.072 107.59 54.544C106.774 54.016 106.142 53.288 105.694 52.36C105.262 51.416 105.046 50.336 105.046 49.12C105.046 47.712 105.27 46.504 105.718 45.496C106.166 44.472 106.798 43.688 107.614 43.144C108.43 42.584 109.382 42.304 110.47 42.304Z" fill="#E7E8DB"/>
<path d="M123.81 42.304C125.218 42.304 126.314 42.736 127.098 43.6C127.898 44.448 128.298 45.776 128.298 47.584H119.826L119.802 47.128H125.994C126.026 46.344 125.962 45.624 125.802 44.968C125.642 44.296 125.386 43.76 125.034 43.36C124.698 42.96 124.258 42.76 123.714 42.76C122.978 42.76 122.322 43.128 121.746 43.864C121.186 44.6 120.85 45.768 120.738 47.368L120.81 47.464C120.778 47.704 120.754 47.968 120.738 48.256C120.722 48.544 120.714 48.832 120.714 49.12C120.714 50.208 120.89 51.144 121.242 51.928C121.594 52.712 122.05 53.312 122.61 53.728C123.186 54.128 123.778 54.328 124.386 54.328C124.866 54.328 125.322 54.256 125.754 54.112C126.186 53.952 126.586 53.696 126.954 53.344C127.322 52.992 127.642 52.52 127.914 51.928L128.394 52.12C128.218 52.648 127.93 53.16 127.53 53.656C127.13 54.152 126.626 54.56 126.018 54.88C125.41 55.184 124.706 55.336 123.906 55.336C122.754 55.336 121.762 55.072 120.93 54.544C120.114 54.016 119.482 53.288 119.034 52.36C118.602 51.416 118.386 50.336 118.386 49.12C118.386 47.712 118.61 46.504 119.058 45.496C119.506 44.472 120.138 43.688 120.954 43.144C121.77 42.584 122.722 42.304 123.81 42.304Z" fill="#E7E8DB"/>
<path d="M143.943 37.744C144.743 37.744 145.351 37.84 145.767 38.032C146.183 38.208 146.551 38.408 146.871 38.632C147.063 38.744 147.215 38.832 147.327 38.896C147.455 38.944 147.575 38.968 147.687 38.968C147.847 38.968 147.959 38.88 148.023 38.704C148.103 38.528 148.167 38.264 148.215 37.912H148.767C148.751 38.184 148.727 38.512 148.695 38.896C148.679 39.264 148.663 39.76 148.647 40.384C148.647 40.992 148.647 41.8 148.647 42.808H148.095C148.047 42.04 147.879 41.304 147.591 40.6C147.303 39.896 146.879 39.32 146.319 38.872C145.775 38.424 145.055 38.2 144.159 38.2C143.311 38.2 142.607 38.456 142.047 38.968C141.503 39.48 141.231 40.152 141.231 40.984C141.231 41.704 141.415 42.312 141.783 42.808C142.151 43.288 142.639 43.728 143.247 44.128C143.871 44.512 144.543 44.928 145.263 45.376C146.095 45.888 146.831 46.4 147.471 46.912C148.127 47.408 148.639 47.96 149.007 48.568C149.391 49.176 149.583 49.912 149.583 50.776C149.583 51.8 149.351 52.648 148.887 53.32C148.423 53.992 147.807 54.496 147.039 54.832C146.271 55.168 145.423 55.336 144.495 55.336C143.647 55.336 142.975 55.24 142.479 55.048C141.983 54.856 141.559 54.656 141.207 54.448C140.855 54.224 140.583 54.112 140.391 54.112C140.231 54.112 140.111 54.2 140.031 54.376C139.967 54.552 139.911 54.816 139.863 55.168H139.311C139.343 54.832 139.359 54.44 139.359 53.992C139.375 53.528 139.383 52.928 139.383 52.192C139.399 51.456 139.407 50.528 139.407 49.408H139.959C140.023 50.368 140.199 51.264 140.487 52.096C140.791 52.928 141.247 53.6 141.855 54.112C142.479 54.608 143.303 54.856 144.327 54.856C144.855 54.856 145.351 54.752 145.815 54.544C146.295 54.32 146.687 53.976 146.991 53.512C147.295 53.032 147.447 52.416 147.447 51.664C147.447 51.008 147.287 50.44 146.967 49.96C146.663 49.464 146.231 49.008 145.671 48.592C145.111 48.16 144.455 47.72 143.703 47.272C142.951 46.808 142.247 46.336 141.591 45.856C140.935 45.376 140.407 44.824 140.007 44.2C139.623 43.56 139.431 42.792 139.431 41.896C139.431 40.952 139.639 40.176 140.055 39.568C140.487 38.944 141.047 38.488 141.735 38.2C142.423 37.896 143.159 37.744 143.943 37.744Z" fill="#E7E8DB"/>
<path d="M158.488 42.304C159.896 42.304 160.992 42.736 161.776 43.6C162.576 44.448 162.976 45.776 162.976 47.584H154.504L154.48 47.128H160.672C160.704 46.344 160.64 45.624 160.48 44.968C160.32 44.296 160.064 43.76 159.712 43.36C159.376 42.96 158.936 42.76 158.392 42.76C157.656 42.76 157 43.128 156.424 43.864C155.864 44.6 155.528 45.768 155.416 47.368L155.488 47.464C155.456 47.704 155.432 47.968 155.416 48.256C155.4 48.544 155.392 48.832 155.392 49.12C155.392 50.208 155.568 51.144 155.92 51.928C156.272 52.712 156.728 53.312 157.288 53.728C157.864 54.128 158.456 54.328 159.064 54.328C159.544 54.328 160 54.256 160.432 54.112C160.864 53.952 161.264 53.696 161.632 53.344C162 52.992 162.32 52.52 162.592 51.928L163.072 52.12C162.896 52.648 162.608 53.16 162.208 53.656C161.808 54.152 161.304 54.56 160.696 54.88C160.088 55.184 159.384 55.336 158.584 55.336C157.432 55.336 156.44 55.072 155.608 54.544C154.792 54.016 154.16 53.288 153.712 52.36C153.28 51.416 153.064 50.336 153.064 49.12C153.064 47.712 153.288 46.504 153.736 45.496C154.184 44.472 154.816 43.688 155.632 43.144C156.448 42.584 157.4 42.304 158.488 42.304Z" fill="#E7E8DB"/>
<path d="M173.461 42.304C173.893 42.304 174.269 42.392 174.589 42.568C174.925 42.744 175.181 42.976 175.357 43.264C175.549 43.536 175.645 43.848 175.645 44.2C175.645 44.6 175.517 44.952 175.261 45.256C175.021 45.56 174.693 45.712 174.277 45.712C173.941 45.712 173.645 45.608 173.389 45.4C173.133 45.176 173.005 44.864 173.005 44.464C173.005 44.16 173.085 43.904 173.245 43.696C173.421 43.472 173.613 43.296 173.821 43.168C173.709 43.008 173.541 42.928 173.317 42.928C172.821 42.928 172.365 43.08 171.949 43.384C171.533 43.672 171.181 44.048 170.893 44.512C170.605 44.976 170.381 45.472 170.221 46C170.061 46.512 169.981 46.992 169.981 47.44V52.528C169.981 53.312 170.205 53.84 170.653 54.112C171.117 54.368 171.741 54.496 172.525 54.496V55C172.157 54.984 171.637 54.968 170.965 54.952C170.293 54.92 169.581 54.904 168.829 54.904C168.285 54.904 167.741 54.92 167.197 54.952C166.669 54.968 166.269 54.984 165.997 55V54.496C166.653 54.496 167.117 54.376 167.389 54.136C167.677 53.896 167.821 53.44 167.821 52.768V45.256C167.821 44.536 167.693 44.008 167.437 43.672C167.181 43.32 166.701 43.144 165.997 43.144V42.64C166.509 42.688 167.005 42.712 167.485 42.712C167.949 42.712 168.389 42.688 168.805 42.64C169.237 42.576 169.629 42.488 169.981 42.376V45.376C170.157 44.912 170.405 44.448 170.725 43.984C171.061 43.504 171.461 43.104 171.925 42.784C172.389 42.464 172.901 42.304 173.461 42.304Z" fill="#E7E8DB"/>
<path d="M188.852 42.64V43.12C188.548 43.152 188.268 43.288 188.012 43.528C187.756 43.768 187.516 44.192 187.292 44.8L183.356 55.12C183.292 55.12 183.228 55.12 183.164 55.12C183.1 55.12 183.028 55.12 182.948 55.12L178.532 44.488C178.276 43.864 178.02 43.488 177.764 43.36C177.524 43.216 177.316 43.144 177.14 43.144V42.64C177.46 42.656 177.788 42.68 178.124 42.712C178.476 42.728 178.852 42.736 179.252 42.736C179.748 42.736 180.268 42.728 180.812 42.712C181.372 42.696 181.892 42.672 182.372 42.64V43.144C181.972 43.144 181.612 43.176 181.292 43.24C180.988 43.288 180.788 43.44 180.692 43.696C180.612 43.952 180.692 44.392 180.932 45.016L183.932 52.432L183.788 52.552L186.524 45.376C186.732 44.848 186.812 44.432 186.764 44.128C186.732 43.808 186.572 43.568 186.284 43.408C186.012 43.248 185.588 43.152 185.012 43.12V42.64C185.3 42.656 185.548 42.672 185.756 42.688C185.964 42.688 186.164 42.696 186.356 42.712C186.564 42.712 186.788 42.712 187.028 42.712C187.396 42.712 187.724 42.704 188.012 42.688C188.316 42.672 188.596 42.656 188.852 42.64Z" fill="#E7E8DB"/>
<path d="M193.563 36.64C193.979 36.64 194.339 36.792 194.643 37.096C194.947 37.4 195.099 37.76 195.099 38.176C195.099 38.592 194.947 38.952 194.643 39.256C194.339 39.56 193.979 39.712 193.563 39.712C193.147 39.712 192.787 39.56 192.483 39.256C192.179 38.952 192.027 38.592 192.027 38.176C192.027 37.76 192.179 37.4 192.483 37.096C192.787 36.792 193.147 36.64 193.563 36.64ZM194.811 42.376V52.768C194.811 53.44 194.947 53.896 195.219 54.136C195.507 54.376 195.979 54.496 196.635 54.496V55C196.363 54.984 195.947 54.968 195.387 54.952C194.843 54.92 194.291 54.904 193.731 54.904C193.187 54.904 192.635 54.92 192.075 54.952C191.515 54.968 191.099 54.984 190.827 55V54.496C191.483 54.496 191.947 54.376 192.219 54.136C192.507 53.896 192.651 53.44 192.651 52.768V45.256C192.651 44.536 192.523 44.008 192.267 43.672C192.011 43.32 191.531 43.144 190.827 43.144V42.64C191.339 42.688 191.835 42.712 192.315 42.712C192.779 42.712 193.219 42.688 193.635 42.64C194.067 42.576 194.459 42.488 194.811 42.376Z" fill="#E7E8DB"/>
<path d="M205.058 42.304C205.57 42.304 206.066 42.368 206.546 42.496C207.026 42.624 207.458 42.816 207.842 43.072C208.21 43.312 208.49 43.592 208.682 43.912C208.874 44.216 208.97 44.552 208.97 44.92C208.97 45.352 208.85 45.688 208.61 45.928C208.37 46.152 208.066 46.264 207.698 46.264C207.346 46.264 207.034 46.16 206.762 45.952C206.506 45.744 206.378 45.448 206.378 45.064C206.378 44.696 206.474 44.4 206.666 44.176C206.874 43.952 207.114 43.808 207.386 43.744C207.226 43.456 206.938 43.216 206.522 43.024C206.122 42.832 205.69 42.736 205.226 42.736C204.826 42.736 204.426 42.832 204.026 43.024C203.626 43.216 203.258 43.536 202.922 43.984C202.586 44.416 202.314 45.016 202.106 45.784C201.898 46.536 201.794 47.48 201.794 48.616C201.794 50.024 201.954 51.144 202.274 51.976C202.594 52.808 203.01 53.408 203.522 53.776C204.05 54.128 204.626 54.304 205.25 54.304C205.666 54.304 206.09 54.224 206.522 54.064C206.954 53.904 207.362 53.648 207.746 53.296C208.13 52.928 208.458 52.44 208.73 51.832L209.186 52C209.026 52.512 208.762 53.032 208.394 53.56C208.026 54.072 207.546 54.496 206.954 54.832C206.362 55.168 205.634 55.336 204.77 55.336C203.778 55.336 202.882 55.08 202.082 54.568C201.282 54.056 200.642 53.328 200.162 52.384C199.698 51.424 199.466 50.288 199.466 48.976C199.466 47.664 199.698 46.512 200.162 45.52C200.642 44.512 201.306 43.728 202.154 43.168C203.002 42.592 203.97 42.304 205.058 42.304Z" fill="#E7E8DB"/>
<path d="M217.762 42.304C219.17 42.304 220.266 42.736 221.05 43.6C221.85 44.448 222.25 45.776 222.25 47.584H213.778L213.754 47.128H219.946C219.978 46.344 219.914 45.624 219.754 44.968C219.594 44.296 219.338 43.76 218.986 43.36C218.65 42.96 218.21 42.76 217.666 42.76C216.93 42.76 216.274 43.128 215.698 43.864C215.138 44.6 214.802 45.768 214.69 47.368L214.762 47.464C214.73 47.704 214.706 47.968 214.69 48.256C214.674 48.544 214.666 48.832 214.666 49.12C214.666 50.208 214.842 51.144 215.194 51.928C215.546 52.712 216.002 53.312 216.562 53.728C217.138 54.128 217.73 54.328 218.338 54.328C218.818 54.328 219.274 54.256 219.706 54.112C220.138 53.952 220.538 53.696 220.906 53.344C221.274 52.992 221.594 52.52 221.866 51.928L222.346 52.12C222.17 52.648 221.882 53.16 221.482 53.656C221.082 54.152 220.578 54.56 219.97 54.88C219.362 55.184 218.658 55.336 217.858 55.336C216.706 55.336 215.714 55.072 214.882 54.544C214.066 54.016 213.434 53.288 212.986 52.36C212.554 51.416 212.338 50.336 212.338 49.12C212.338 47.712 212.562 46.504 213.01 45.496C213.458 44.472 214.09 43.688 214.906 43.144C215.722 42.584 216.674 42.304 217.762 42.304Z" fill="#E7E8DB"/>
<path d="M229.566 42.304C230.206 42.304 230.75 42.408 231.198 42.616C231.646 42.824 231.974 43.016 232.182 43.192C232.71 43.624 233.03 43.336 233.142 42.328H233.694C233.662 42.776 233.638 43.312 233.622 43.936C233.606 44.544 233.598 45.368 233.598 46.408H233.046C232.95 45.816 232.782 45.24 232.542 44.68C232.318 44.12 231.982 43.664 231.534 43.312C231.086 42.944 230.502 42.76 229.782 42.76C229.222 42.76 228.75 42.92 228.366 43.24C227.998 43.544 227.814 44 227.814 44.608C227.814 45.088 227.958 45.504 228.246 45.856C228.534 46.192 228.91 46.512 229.374 46.816C229.838 47.104 230.342 47.424 230.886 47.776C231.494 48.16 232.046 48.552 232.542 48.952C233.038 49.352 233.43 49.792 233.718 50.272C234.022 50.752 234.174 51.32 234.174 51.976C234.174 52.712 233.982 53.328 233.598 53.824C233.214 54.32 232.71 54.696 232.086 54.952C231.478 55.208 230.806 55.336 230.07 55.336C229.718 55.336 229.382 55.304 229.062 55.24C228.758 55.192 228.462 55.112 228.174 55C228.014 54.92 227.846 54.824 227.67 54.712C227.51 54.6 227.35 54.48 227.19 54.352C227.03 54.224 226.886 54.232 226.758 54.376C226.63 54.504 226.534 54.768 226.47 55.168H225.918C225.95 54.656 225.974 54.032 225.99 53.296C226.006 52.56 226.014 51.584 226.014 50.368H226.566C226.678 51.264 226.838 52.048 227.046 52.72C227.254 53.392 227.582 53.92 228.03 54.304C228.478 54.672 229.102 54.856 229.902 54.856C230.222 54.856 230.542 54.784 230.862 54.64C231.198 54.496 231.478 54.256 231.702 53.92C231.926 53.584 232.038 53.136 232.038 52.576C232.038 51.872 231.782 51.296 231.27 50.848C230.758 50.4 230.11 49.928 229.326 49.432C228.75 49.064 228.206 48.696 227.694 48.328C227.198 47.96 226.79 47.544 226.47 47.08C226.166 46.616 226.014 46.056 226.014 45.4C226.014 44.68 226.174 44.096 226.494 43.648C226.83 43.184 227.27 42.848 227.814 42.64C228.358 42.416 228.942 42.304 229.566 42.304Z" fill="#E7E8DB"/>
</svg>
